<svg width="269" height="85" viewBox="0 0 269 85" fill="none" xmlns="http://www.w3.org/2000/svg">
<path d="M15.6796 56.184L27.5836 21.496C28.2662 19.6187 28.6929 18.68 28.8636 18.68C29.2049 18.68 29.8022 19.8534 30.6556 22.2L44.5436 59.064C45.0129 60.4294 46.0796 61.112 47.7436 61.112C48.7249 61.112 49.4502 60.728 49.9196 59.96C50.0902 59.6614 50.2609 59.3627 50.4316 59.064C50.6022 58.7227 50.7302 58.552 50.8156 58.552C51.1996 58.552 51.3916 58.808 51.3916 59.32C51.3916 59.832 50.7302 60.7494 49.4076 62.072C48.0849 63.3947 46.2502 64.056 43.9036 64.056C40.9596 64.056 38.9969 62.7547 38.0156 60.152L34.1116 49.72H19.1996L16.5756 57.336C15.6796 59.9387 14.5702 61.752 13.2476 62.776C11.9676 63.7574 10.3676 64.248 8.44757 64.248C5.88757 64.248 3.83957 63.288 2.30357 61.368C0.76757 59.448 -0.000429869 57.3787 -0.000429869 55.16C-0.000429869 52.8987 0.57557 51.0854 1.72757 49.72C2.8369 48.3547 4.28757 47.672 6.07957 47.672C6.9329 47.672 7.8289 47.928 8.76757 48.44C10.1756 49.208 10.8796 50.0187 10.8796 50.872C10.8796 51.2134 10.7729 51.384 10.5596 51.384C10.3889 51.384 10.0902 51.1707 9.66357 50.744C8.42624 49.5067 7.1249 48.888 5.75957 48.888C4.39424 48.888 3.30624 49.4854 2.49557 50.68C1.6849 51.8747 1.27957 53.4534 1.27957 55.416C1.27957 57.336 2.0049 59.0854 3.45557 60.664C4.90624 62.2427 6.5489 63.032 8.38357 63.032C10.2182 63.032 11.6476 62.5627 12.6716 61.624C13.7382 60.6427 14.7409 58.8294 15.6796 56.184ZM26.3676 28.856L19.5836 48.504H33.6636L26.3676 28.856ZM66.3276 63.544H59.9276V20.28H55.0636C53.0582 20.28 51.5649 20.728 50.5836 21.624C49.6022 22.4774 49.1116 23.5014 49.1116 24.696C49.1116 25.8907 49.4102 26.872 50.0076 27.64C50.6049 28.3654 51.3942 28.728 52.3756 28.728C53.3996 28.728 54.1462 28.4934 54.6156 28.024C55.0849 27.5547 55.4476 27.1067 55.7036 26.68C55.9596 26.2107 56.2156 25.976 56.4716 25.976C56.7276 25.976 56.8556 26.296 56.8556 26.936C56.8556 27.576 56.3649 28.2587 55.3836 28.984C54.4449 29.6667 53.3356 30.008 52.0556 30.008C50.7756 30.008 49.7516 29.5174 48.9836 28.536C48.2156 27.5547 47.8316 26.3387 47.8316 24.888C47.8316 23.3947 48.4502 22.0507 49.6876 20.856C50.9676 19.6187 52.7809 19 55.1276 19H66.3276V63.544ZM116.147 19.128H123.443V66.104C123.443 68.152 124.509 69.176 126.643 69.176C127.496 69.176 128.136 68.984 128.563 68.6C129.032 68.2587 129.288 68.088 129.331 68.088C129.629 68.088 129.779 68.2374 129.779 68.536C129.779 68.8774 129.672 69.176 129.459 69.432C128.904 70.1147 127.581 70.456 125.491 70.456C123.443 70.456 121.501 69.8374 119.667 68.6C117.875 67.4054 116.979 65.6987 116.979 63.48V21.112L104.499 63.416C104.413 63.8854 104.179 64.12 103.795 64.12C103.453 64.12 103.197 63.8427 103.027 63.288L90.5466 21.368V49.208C90.5466 54.0294 89.5012 57.6987 87.4106 60.216C85.3626 62.6907 82.9519 63.928 80.1786 63.928C77.4052 63.928 75.0586 63.1174 73.1386 61.496C71.2612 59.8747 70.3226 57.8907 70.3226 55.544C70.3226 53.1547 70.8986 51.4907 72.0506 50.552C73.1599 49.5707 74.1412 49.08 74.9946 49.08C75.8906 49.08 76.6586 49.272 77.2986 49.656C77.9386 50.04 78.2586 50.4667 78.2586 50.936C78.2586 51.4054 78.1519 51.64 77.9386 51.64C77.7252 51.64 77.5546 51.576 77.4266 51.448C77.3412 51.32 77.2559 51.1707 77.1706 51C76.8719 50.5734 76.1679 50.36 75.0586 50.36C73.9919 50.36 73.1386 50.8294 72.4986 51.768C71.8586 52.664 71.5386 53.816 71.5386 55.224C71.5386 57.528 72.3706 59.3627 74.0346 60.728C75.7412 62.0507 77.7466 62.712 80.0506 62.712C82.3546 62.712 84.4666 61.6454 86.3866 59.512C88.3066 57.3787 89.2666 54.4987 89.2666 50.872V20.28H84.2106C82.2052 20.28 80.7119 20.728 79.7306 21.624C78.7492 22.4774 78.2586 23.5014 78.2586 24.696C78.2586 25.848 78.5572 26.808 79.1546 27.576C79.7519 28.344 80.5412 28.728 81.5226 28.728C82.5466 28.728 83.2932 28.4934 83.7626 28.024C84.2319 27.5547 84.5946 27.1067 84.8506 26.68C85.1066 26.2107 85.3626 25.976 85.6186 25.976C85.8746 25.976 86.0026 26.296 86.0026 26.936C86.0026 27.576 85.5119 28.2587 84.5306 28.984C83.5919 29.6667 82.4826 30.008 81.2026 30.008C79.9226 30.008 78.8986 29.5174 78.1306 28.536C77.3626 27.5547 76.9786 26.3387 76.9786 24.888C76.9786 23.3947 77.5972 22.0507 78.8346 20.856C80.1146 19.6187 81.9279 19 84.2746 19H96.6906L106.419 52.216L116.147 19.128ZM137.052 56.824C135.729 55.16 134.62 53.0054 133.724 50.36C132.871 47.7147 132.444 44.9627 132.444 42.104C132.444 39.2027 132.871 36.408 133.724 33.72C134.62 31.032 135.857 28.536 137.436 26.232C139.015 23.928 141.063 22.0507 143.58 20.6C146.14 19.1067 149.105 18.36 152.476 18.36C155.889 18.36 159.068 19.5547 162.012 21.944C164.956 24.3334 167.153 27.3414 168.604 30.968C170.097 34.552 170.844 38.264 170.844 42.104C170.844 45.9014 170.204 49.2507 168.924 52.152C167.687 55.0534 166.087 57.3574 164.124 59.064C160.113 62.4774 155.932 64.184 151.58 64.184C148.124 64.184 144.817 63.1387 141.66 61.048C139.953 59.896 138.417 58.488 137.052 56.824ZM157.084 37.304L155.228 36.92C154.375 36.92 153.671 37.2827 153.116 38.008C152.561 38.7334 152.284 39.544 152.284 40.44C152.284 41.2934 152.668 42.232 153.436 43.256C154.247 44.2374 155.548 44.728 157.34 44.728C159.132 44.728 160.689 43.9174 162.012 42.296C163.377 40.632 164.06 37.88 164.06 34.04C164.06 30.2 162.972 26.8507 160.796 23.992C158.62 21.0907 155.484 19.64 151.388 19.64C149.297 19.64 147.484 20.0667 145.948 20.92C144.412 21.7307 143.196 22.7974 142.3 24.12C141.404 25.4427 140.679 27.128 140.124 29.176C139.271 32.5467 138.844 36.9414 138.844 42.36C138.844 56.056 142.94 62.904 151.132 62.904C155.74 62.904 159.111 61.24 161.244 57.912C163.377 54.584 164.444 49.6774 164.444 43.192C164.444 42.2107 164.423 41.4854 164.38 41.016C163.996 42.1254 163.1 43.2347 161.692 44.344C160.327 45.4534 158.812 46.008 157.148 46.008C155.484 46.008 154.033 45.4534 152.796 44.344C151.601 43.192 151.004 41.912 151.004 40.504C151.004 39.096 151.388 37.944 152.156 37.048C152.924 36.1094 154.012 35.64 155.42 35.64C156.871 35.64 157.596 36.0454 157.596 36.856C157.596 37.1547 157.425 37.304 157.084 37.304ZM179.565 19H196.333C208.109 19 213.997 23.0747 213.997 31.224C213.997 34.7654 212.994 37.432 210.989 39.224C208.984 41.016 206.488 42.168 203.501 42.68C206.616 42.7227 208.962 43.704 210.541 45.624C212.162 47.544 212.973 49.9547 212.973 52.856V66.296C212.973 68.344 214.018 69.368 216.109 69.368C216.621 69.368 217.069 69.2827 217.453 69.112C217.837 68.984 218.072 68.92 218.157 68.92C218.498 68.92 218.669 69.112 218.669 69.496C218.669 70.264 217.538 70.648 215.277 70.648C213.016 70.648 210.989 70.008 209.197 68.728C207.405 67.448 206.509 65.656 206.509 63.352V58.36C206.509 52.0027 206.018 47.9067 205.037 46.072C204.653 45.3467 204.312 44.792 204.013 44.408C203.714 44.024 203.245 43.7254 202.605 43.512C201.965 43.2987 200.813 43.1494 199.149 43.064C193.816 42.8507 191.021 40.5254 190.765 36.088V63.544H184.365V20.28H179.501C177.496 20.28 176.002 20.728 175.021 21.624C174.04 22.4774 173.549 23.5014 173.549 24.696C173.549 25.848 173.848 26.808 174.445 27.576C175.042 28.344 175.832 28.728 176.813 28.728C177.837 28.728 178.584 28.4934 179.053 28.024C179.522 27.5547 179.885 27.1067 180.141 26.68C180.397 26.2107 180.653 25.976 180.909 25.976C181.165 25.976 181.293 26.296 181.293 26.936C181.293 27.576 180.802 28.2587 179.821 28.984C178.882 29.6667 177.773 30.008 176.493 30.008C175.213 30.008 174.189 29.5174 173.421 28.536C172.653 27.5547 172.269 26.3387 172.269 24.888C172.269 23.3947 172.888 22.0507 174.125 20.856C175.405 19.6187 177.218 19 179.565 19ZM190.765 34.936C190.808 32.5894 191.426 30.904 192.621 29.88C193.858 28.856 195.053 28.344 196.205 28.344C197.357 28.344 198.338 28.536 199.149 28.92C200.002 29.304 200.429 29.688 200.429 30.072C200.429 30.2427 200.344 30.4134 200.173 30.584C200.045 30.712 199.917 30.776 199.789 30.776C199.704 30.776 199.341 30.584 198.701 30.2C198.061 29.816 197.229 29.624 196.205 29.624C195.181 29.624 194.221 30.0507 193.325 30.904C192.429 31.7147 191.981 33.08 191.981 35C191.981 36.8774 192.642 38.4987 193.965 39.864C195.288 41.1867 197.293 41.848 199.981 41.848C202.669 41.848 204.717 41.144 206.125 39.736C207.576 38.328 208.301 35.6827 208.301 31.8C208.301 27.8747 207.405 24.9734 205.613 23.096C203.821 21.2187 201.026 20.28 197.229 20.28H190.765V34.936ZM231.055 56.184L242.959 21.496C243.641 19.6187 244.068 18.68 244.239 18.68C244.58 18.68 245.177 19.8534 246.031 22.2L259.919 59.064C260.388 60.4294 261.455 61.112 263.119 61.112C264.1 61.112 264.825 60.728 265.295 59.96C265.465 59.6614 265.636 59.3627 265.807 59.064C265.977 58.7227 266.105 58.552 266.191 58.552C266.575 58.552 266.767 58.808 266.767 59.32C266.767 59.832 266.105 60.7494 264.783 62.072C263.46 63.3947 261.625 64.056 259.279 64.056C256.335 64.056 254.372 62.7547 253.391 60.152L249.487 49.72H234.575L231.951 57.336C231.055 59.9387 229.945 61.752 228.623 62.776C227.343 63.7574 225.743 64.248 223.823 64.248C221.263 64.248 219.215 63.288 217.679 61.368C216.143 59.448 215.375 57.3787 215.375 55.16C215.375 52.8987 215.951 51.0854 217.103 49.72C218.212 48.3547 219.663 47.672 221.455 47.672C222.308 47.672 223.204 47.928 224.143 48.44C225.551 49.208 226.255 50.0187 226.255 50.872C226.255 51.2134 226.148 51.384 225.935 51.384C225.764 51.384 225.465 51.1707 225.039 50.744C223.801 49.5067 222.5 48.888 221.135 48.888C219.769 48.888 218.681 49.4854 217.871 50.68C217.06 51.8747 216.655 53.4534 216.655 55.416C216.655 57.336 217.38 59.0854 218.831 60.664C220.281 62.2427 221.924 63.032 223.759 63.032C225.593 63.032 227.023 62.5627 228.047 61.624C229.113 60.6427 230.116 58.8294 231.055 56.184ZM241.743 28.856L234.959 48.504H249.039L241.743 28.856Z" fill="black"/>
</svg>
